<?xml version="1.0" encoding="UTF-8"?><svg id="Layer_1" xmlns="http://www.w3.org/2000/svg" viewBox="0 0 1331.08 192.83"><path d="M41.44,142.02c-6.56,0-12.52-1.7-17.88-5.09-5.36-3.39-9.65-8.49-12.85-15.28-3.2-6.79-4.8-15.22-4.8-25.29s1.66-19.06,4.98-25.81c3.32-6.75,7.67-11.75,13.05-14.99,5.38-3.24,11.18-4.86,17.39-4.86,4.67,0,8.66.8,11.98,2.4,3.32,1.6,6.06,3.66,8.22,6.16,2.16,2.51,3.8,5.11,4.92,7.81h.58V22.22h28.3v118.53h-28.01v-14.41h-.87c-1.2,2.74-2.89,5.3-5.09,7.7s-4.95,4.32-8.25,5.79-7.19,2.2-11.66,2.2ZM51.28,119.97c3.43,0,6.37-.97,8.8-2.92s4.3-4.7,5.61-8.25c1.31-3.55,1.97-7.72,1.97-12.5s-.65-9.05-1.94-12.56c-1.29-3.51-3.16-6.21-5.61-8.1-2.45-1.89-5.39-2.84-8.83-2.84s-6.48.96-8.91,2.89c-2.43,1.93-4.27,4.65-5.53,8.16-1.25,3.51-1.88,7.66-1.88,12.44s.64,8.95,1.91,12.5,3.12,6.3,5.53,8.25c2.41,1.95,5.37,2.92,8.88,2.92Z" fill="#333"/><path d="M130.56,174.08c-3.4,0-6.6-.26-9.61-.78-3.01-.52-5.59-1.21-7.75-2.05l6.25-20.55c2.78.93,5.3,1.47,7.55,1.62,2.26.15,4.21-.2,5.85-1.07,1.64-.87,2.9-2.4,3.79-4.6l1.1-2.66-31.6-92.14h29.63l16.38,63.43h.93l16.61-63.43h29.81l-33.51,97.4c-1.62,4.86-3.91,9.15-6.86,12.88-2.95,3.72-6.75,6.65-11.4,8.77-4.65,2.12-10.37,3.18-17.16,3.18Z" fill="#333"/><path d="M238.61,22.22v118.53h-28.3V22.22h28.3Z" fill="#333"/><path d="M281.61,142.25c-5.67,0-10.7-.96-15.08-2.87-4.38-1.91-7.83-4.8-10.36-8.68-2.53-3.88-3.79-8.75-3.79-14.61,0-4.94.87-9.11,2.6-12.5,1.74-3.39,4.13-6.15,7.18-8.28,3.05-2.12,6.56-3.73,10.53-4.83,3.97-1.1,8.22-1.84,12.73-2.23,5.05-.46,9.12-.96,12.21-1.48,3.09-.52,5.33-1.27,6.74-2.26,1.41-.98,2.11-2.38,2.11-4.2v-.29c0-2.97-1.02-5.27-3.07-6.89-2.05-1.62-4.8-2.43-8.28-2.43-3.74,0-6.75.81-9.03,2.43-2.28,1.62-3.72,3.86-4.34,6.71l-26.1-.93c.77-5.4,2.77-10.23,5.99-14.5,3.22-4.26,7.66-7.62,13.31-10.07,5.65-2.45,12.45-3.67,20.4-3.67,5.67,0,10.9.67,15.68,2,4.78,1.33,8.95,3.26,12.5,5.79,3.55,2.53,6.3,5.62,8.25,9.29,1.95,3.67,2.92,7.85,2.92,12.56v60.42h-26.62v-12.38h-.69c-1.58,3.01-3.6,5.56-6.05,7.64-2.45,2.08-5.32,3.65-8.62,4.69-3.3,1.04-7.01,1.56-11.14,1.56ZM290.35,123.73c3.05,0,5.8-.62,8.25-1.85,2.45-1.23,4.41-2.94,5.87-5.12,1.47-2.18,2.2-4.72,2.2-7.61v-8.45c-.81.42-1.79.81-2.92,1.16-1.14.35-2.38.68-3.73.98-1.35.31-2.74.58-4.17.81-1.43.23-2.8.44-4.11.64-2.66.43-4.93,1.08-6.8,1.97-1.87.89-3.3,2.04-4.28,3.44-.98,1.41-1.48,3.08-1.48,5.01,0,2.93,1.05,5.17,3.15,6.71,2.1,1.54,4.77,2.32,8.02,2.32Z" fill="#333"/><path d="M380.28,90.05v50.7h-28.3V51.85h26.91v16.32h.98c1.97-5.44,5.32-9.71,10.07-12.82,4.75-3.1,10.4-4.66,16.96-4.66s11.68,1.4,16.29,4.2c4.61,2.8,8.2,6.69,10.76,11.69,2.57,5,3.83,10.83,3.79,17.51v56.66h-28.3v-51.1c.04-4.94-1.21-8.8-3.73-11.57-2.53-2.78-6.03-4.17-10.5-4.17-2.97,0-5.58.65-7.84,1.94-2.26,1.29-3.99,3.14-5.21,5.53-1.22,2.39-1.84,5.29-1.88,8.68Z" fill="#333"/><path d="M483.65,90.05v50.7h-28.3V22.22h27.37v45.95h.98c2.01-5.48,5.3-9.76,9.87-12.85,4.57-3.09,10.18-4.63,16.81-4.63,6.25,0,11.69,1.38,16.32,4.14,4.63,2.76,8.23,6.65,10.79,11.66,2.57,5.02,3.83,10.88,3.79,17.59v56.66h-28.3v-51.1c.04-4.94-1.2-8.8-3.7-11.57-2.51-2.78-6.04-4.17-10.59-4.17-2.97,0-5.58.65-7.84,1.94-2.26,1.29-4.01,3.14-5.27,5.53-1.25,2.39-1.9,5.29-1.94,8.68Z" fill="#333"/><path d="M600.38,142.43c-9.34,0-17.35-1.92-24.05-5.76-6.69-3.84-11.85-9.2-15.45-16.09-3.61-6.89-5.41-14.88-5.41-23.99s1.8-17.16,5.41-24.05c3.61-6.89,8.76-12.25,15.45-16.09,6.69-3.84,14.71-5.76,24.05-5.76s17.35,1.92,24.05,5.76c6.69,3.84,11.84,9.2,15.45,16.09,3.61,6.89,5.41,14.9,5.41,24.05s-1.8,17.1-5.41,23.99c-3.61,6.89-8.76,12.25-15.45,16.09-6.69,3.84-14.71,5.76-24.05,5.76ZM600.55,121.07c3.39,0,6.27-1.04,8.62-3.13,2.35-2.08,4.16-4.98,5.41-8.68,1.25-3.7,1.88-7.99,1.88-12.85s-.63-9.26-1.88-12.96c-1.25-3.7-3.06-6.6-5.41-8.68-2.35-2.08-5.23-3.13-8.62-3.13s-6.47,1.04-8.88,3.13c-2.41,2.08-4.24,4.98-5.5,8.68-1.25,3.7-1.88,8.03-1.88,12.96s.63,9.14,1.88,12.85c1.25,3.7,3.09,6.6,5.5,8.68,2.41,2.08,5.37,3.13,8.88,3.13Z" fill="#333"/><path d="M701.31,142.43c-9.34,0-17.35-1.92-24.04-5.76-6.7-3.84-11.85-9.2-15.45-16.09-3.61-6.89-5.41-14.88-5.41-23.99s1.8-17.16,5.41-24.05c3.61-6.89,8.76-12.25,15.45-16.09,6.69-3.84,14.71-5.76,24.04-5.76s17.35,1.92,24.05,5.76c6.69,3.84,11.85,9.2,15.45,16.09,3.61,6.89,5.41,14.9,5.41,24.05s-1.8,17.1-5.41,23.99-8.76,12.25-15.45,16.09c-6.69,3.84-14.71,5.76-24.05,5.76ZM701.48,121.07c3.39,0,6.27-1.04,8.62-3.13,2.35-2.08,4.16-4.98,5.41-8.68s1.88-7.99,1.88-12.85-.63-9.26-1.88-12.96c-1.25-3.7-3.06-6.6-5.41-8.68s-5.23-3.13-8.62-3.13-6.47,1.04-8.88,3.13c-2.41,2.08-4.24,4.98-5.5,8.68-1.25,3.7-1.88,8.03-1.88,12.96s.63,9.14,1.88,12.85,3.09,6.6,5.5,8.68c2.41,2.08,5.37,3.13,8.88,3.13Z" fill="#333"/><path d="M793.21,142.02c-6.56,0-12.52-1.7-17.88-5.09-5.36-3.39-9.65-8.49-12.85-15.28-3.2-6.79-4.8-15.22-4.8-25.29s1.66-19.06,4.98-25.81c3.32-6.75,7.67-11.75,13.05-14.99,5.38-3.24,11.18-4.86,17.39-4.86,4.67,0,8.66.8,11.98,2.4,3.32,1.6,6.06,3.66,8.22,6.16,2.16,2.51,3.8,5.11,4.92,7.81h.58V22.22h28.3v118.53h-28.01v-14.41h-.87c-1.2,2.74-2.89,5.3-5.09,7.7s-4.95,4.32-8.25,5.79-7.19,2.2-11.66,2.2ZM803.05,119.97c3.43,0,6.37-.97,8.8-2.92s4.3-4.7,5.61-8.25,1.97-7.72,1.97-12.5-.65-9.05-1.94-12.56c-1.29-3.51-3.16-6.21-5.61-8.1-2.45-1.89-5.39-2.84-8.83-2.84s-6.48.96-8.91,2.89c-2.43,1.93-4.27,4.65-5.53,8.16-1.25,3.51-1.88,7.66-1.88,12.44s.64,8.95,1.91,12.5c1.27,3.55,3.12,6.3,5.53,8.25,2.41,1.95,5.37,2.92,8.88,2.92Z" fill="#333"/><path d="M867.69,140.75V51.85h16.61v14.47h1.1c1.85-4.9,4.88-8.73,9.09-11.49,4.2-2.76,9.24-4.14,15.1-4.14s10.93,1.39,14.96,4.17c4.03,2.78,7.01,6.6,8.94,11.46h.93c2.12-4.75,5.5-8.54,10.13-11.37,4.63-2.84,10.15-4.25,16.55-4.25,8.06,0,14.65,2.53,19.76,7.58,5.11,5.05,7.67,12.67,7.67,22.86v59.61h-17.3v-57.99c0-6.02-1.64-10.38-4.92-13.08-3.28-2.7-7.2-4.05-11.75-4.05-5.63,0-10.01,1.73-13.14,5.18-3.12,3.45-4.69,7.88-4.69,13.28v56.66h-17.25v-59.09c0-4.82-1.5-8.7-4.51-11.63-3.01-2.93-6.93-4.4-11.75-4.4-3.28,0-6.3.86-9.06,2.58-2.76,1.72-4.98,4.1-6.66,7.15-1.68,3.05-2.52,6.58-2.52,10.59v54.81h-17.3Z" fill="#333"/><path d="M1049.99,142.54c-8.76,0-16.29-1.88-22.6-5.64-6.31-3.76-11.17-9.07-14.58-15.92-3.41-6.85-5.12-14.88-5.12-24.11s1.71-17.13,5.12-24.08c3.42-6.94,8.2-12.37,14.35-16.26,6.15-3.9,13.36-5.85,21.62-5.85,5.02,0,9.88.83,14.58,2.49,4.71,1.66,8.93,4.26,12.67,7.81,3.74,3.55,6.69,8.15,8.85,13.8,2.16,5.65,3.24,12.51,3.24,20.57v6.14h-70.66v-12.96h53.71c0-4.55-.93-8.59-2.78-12.12-1.85-3.53-4.45-6.32-7.78-8.36-3.34-2.04-7.24-3.07-11.72-3.07-4.86,0-9.1,1.19-12.7,3.56-3.61,2.37-6.39,5.46-8.33,9.26-1.95,3.8-2.92,7.92-2.92,12.36v10.13c0,5.94,1.05,11,3.15,15.16,2.1,4.17,5.04,7.34,8.83,9.52s8.2,3.27,13.25,3.27c3.28,0,6.27-.47,8.97-1.42,2.7-.94,5.04-2.36,7-4.25,1.97-1.89,3.47-4.22,4.51-7l16.38,2.95c-1.31,4.82-3.66,9.04-7.03,12.65-3.38,3.61-7.6,6.41-12.67,8.39-5.07,1.99-10.85,2.98-17.33,2.98Z" fill="#333"/><path d="M1140.68,142.48c-7.18,0-13.57-1.84-19.19-5.53-5.61-3.68-10.01-8.95-13.2-15.8-3.18-6.85-4.77-15.08-4.77-24.68s1.61-17.83,4.83-24.65c3.22-6.83,7.65-12.06,13.28-15.68,5.63-3.63,12.02-5.44,19.16-5.44,5.52,0,9.96.92,13.34,2.75,3.38,1.83,6,3.96,7.87,6.4s3.33,4.57,4.37,6.42h1.04V22.22h17.3v118.53h-16.9v-13.83h-1.45c-1.04,1.89-2.54,4.05-4.49,6.48-1.95,2.43-4.62,4.55-8.02,6.37-3.4,1.81-7.79,2.72-13.2,2.72ZM1144.5,127.73c4.98,0,9.19-1.32,12.65-3.96,3.45-2.64,6.08-6.32,7.87-11.02s2.69-10.19,2.69-16.44-.89-11.57-2.66-16.2c-1.78-4.63-4.38-8.24-7.81-10.82-3.43-2.58-7.68-3.88-12.73-3.88s-9.55,1.35-13.02,4.05c-3.47,2.7-6.09,6.39-7.84,11.05-1.76,4.67-2.63,9.94-2.63,15.8s.89,11.29,2.66,16.03c1.77,4.75,4.41,8.5,7.9,11.26,3.49,2.76,7.8,4.14,12.93,4.14Z" fill="#333"/><path d="M1218.11,38.14c-3.01,0-5.58-1.01-7.73-3.04-2.14-2.03-3.21-4.45-3.21-7.26s1.07-5.3,3.21-7.32c2.14-2.03,4.72-3.04,7.73-3.04s5.58,1.01,7.73,3.04c2.14,2.03,3.21,4.45,3.21,7.26s-1.07,5.3-3.21,7.32c-2.14,2.03-4.72,3.04-7.73,3.04ZM1209.38,140.75V51.85h17.3v88.9h-17.3Z" fill="#333"/><path d="M1275.81,142.72c-5.63,0-10.73-1.05-15.28-3.15-4.55-2.1-8.15-5.16-10.79-9.17s-3.96-8.93-3.96-14.76c0-5.02.96-9.14,2.89-12.38,1.93-3.24,4.53-5.81,7.81-7.7,3.28-1.89,6.94-3.32,11-4.28,4.05-.96,8.18-1.7,12.38-2.2,5.32-.62,9.64-1.13,12.96-1.53,3.32-.41,5.73-1.07,7.23-2,1.5-.93,2.26-2.43,2.26-4.51v-.4c0-5.05-1.42-8.97-4.25-11.75s-7.05-4.17-12.65-4.17-10.41,1.28-13.75,3.85c-3.34,2.57-5.64,5.41-6.92,8.54l-16.26-3.7c1.93-5.4,4.75-9.77,8.48-13.11,3.72-3.34,8.02-5.77,12.88-7.29,4.86-1.52,9.97-2.29,15.34-2.29,3.55,0,7.32.42,11.31,1.24,3.99.83,7.74,2.34,11.23,4.54,3.49,2.2,6.36,5.33,8.59,9.4,2.24,4.07,3.36,9.35,3.36,15.83v59.03h-16.9v-12.15h-.69c-1.12,2.24-2.8,4.44-5.04,6.6-2.24,2.16-5.11,3.96-8.62,5.38-3.51,1.43-7.72,2.14-12.62,2.14ZM1279.58,128.83c4.78,0,8.88-.95,12.3-2.84,3.41-1.89,6.02-4.37,7.81-7.44s2.69-6.36,2.69-9.87v-11.46c-.62.62-1.8,1.19-3.56,1.71-1.76.52-3.75.96-5.99,1.33-2.24.37-4.42.69-6.54.98-2.12.29-3.9.53-5.32.72-3.36.42-6.42,1.14-9.17,2.14-2.76,1-4.96,2.44-6.6,4.31-1.64,1.87-2.46,4.35-2.46,7.44,0,4.28,1.58,7.51,4.75,9.69,3.16,2.18,7.2,3.27,12.09,3.27Z" fill="#333"/></svg>